{
	"asset":{
		"version":"2.0",
		"generator":"Maxon Cinema 4D 2024.1.0 (#200000219)"
	},
	"scenes":[{
		"nodes":[0]
	}],
	"nodes":[{
		"name":"Cube.2",
		"mesh":0,
		"translation":[-0.004000000189989805,
		0.9613233804702759,
		0.014999999664723874],
		"scale":[1.0,
		1.0,
		1.0],
		"rotation":[0.0,
		0.1633259654045105,
		0.0,
		-0.9865721464157105]
	}],
	"meshes":[{
		"name":"Cube.2",
		"primitives":[{
			"attributes":{
				"POSITION":1,
				"NORMAL":2,
				"TEXCOORD_0":3
			},
			"indices":0,
			"material":0
		}]
	}],
	"accessors":[{
		"bufferView":0,
		"min":[0],
		"type":"SCALAR",
		"componentType":5123,
		"count":14244,
		"byteOffset":0,
		"max":[3189]
	},
	{
		"bufferView":1,
		"min":[-0.3160000145435333,
		-0.3213233947753906,
		-0.0638304278254509],
		"type":"VEC3",
		"componentType":5126,
		"count":3190,
		"byteOffset":0,
		"max":[0.3240000009536743,
		0.318676620721817,
		0.09756805747747421]
	},
	{
		"bufferView":1,
		"min":[-1.0,
		-1.0,
		-0.9980059862136841],
		"type":"VEC3",
		"componentType":5126,
		"count":3190,
		"byteOffset":12,
		"max":[0.9999997615814209,
		0.9999980926513672,
		0.9999998807907105]
	},
	{
		"bufferView":1,
		"min":[0.0,
		0.0],
		"type":"VEC2",
		"componentType":5126,
		"count":3190,
		"byteOffset":24,
		"max":[1.0,
		1.0]
	},
	{
		"bufferView":2,
		"min":[0.0],
		"type":"SCALAR",
		"componentType":5126,
		"count":2,
		"byteOffset":0,
		"max":[7.333333492279053]
	},
	{
		"bufferView":2,
		"min":[0.0,
		0.1633259654045105,
		0.0,
		-0.9865721464157105],
		"type":"VEC4",
		"componentType":5126,
		"count":2,
		"byteOffset":8,
		"max":[0.0,
		0.1633259654045105,
		0.0,
		-0.9865721464157105]
	}],
	"bufferViews":[{
		"buffer":0,
		"byteOffset":0,
		"byteLength":28488,
		"target":34963
	},
	{
		"buffer":0,
		"byteOffset":28488,
		"byteLength":102080,
		"target":34962,
		"byteStride":32
	},
	{
		"buffer":1,
		"byteOffset":0,
		"byteLength":40
	}],
	"buffers":[{
		"uri":"data:application/octet-stream;base64,",
		"byteLength":130568
	},
	{
		"uri":"data:application/octet-stream;base64,",
		"byteLength":40
	}],
	"materials":[{
		"pbrMetallicRoughness":{
			"baseColorFactor":[1.0,
			1.0,
			1.0,
			1.0],
			"metallicFactor":1.0,
			"roughnessFactor":1.0
		},
		"emissiveFactor":[0.0,
		0.0,
		0.0],
		"alphaMode":"OPAQUE",
		"doubleSided":false,
		"name":""
	}],
	"animations":[{
		"samplers":[{
			"input":4,
			"interpolation":"LINEAR",
			"output":5
		}],
		"channels":[{
			"sampler":0,
			"target":{
				"node":0,
				"path":"rotation"
			}
		}]
	}]
}